<svg width="1725" height="721" viewBox="0 0 1725 721" fill="none" xmlns="http://www.w3.org/2000/svg">
<path fill-rule="evenodd" clip-rule="evenodd" d="M1639.99 108.334C1677.39 101.047 1720.15 82.2902 1749.63 108.489C1779.89 135.382 1772.91 185.773 1775.02 228.341C1777.32 274.816 1795.42 332.835 1762.18 361.919C1728.91 391.037 1681.98 354.47 1639.99 346.494C1609.67 340.736 1576.37 345.441 1553.97 322.374C1531.1 298.819 1523.42 262.633 1525.26 228.341C1527 196.007 1542.11 167.142 1563.52 144.749C1584.4 122.905 1611.53 113.878 1639.99 108.334Z" fill="#C72926"/>
<path fill-rule="evenodd" clip-rule="evenodd" d="M214.879 86.5288C297.757 78.8688 376.85 155.705 404.233 234.303C427.324 300.583 327.648 353.628 332.331 423.658C337.836 505.973 461.849 563.49 431.375 640.154C401.876 714.363 294.394 726.511 214.879 719.133C141.118 712.289 82.014 660.756 35.1491 603.388C-6.50546 552.397 -30.8657 489.355 -26.4965 423.658C-22.395 361.987 21.5836 316.598 57.5645 266.344C105.76 199.029 132.44 94.1481 214.879 86.5288Z" fill="#C72926"/>
<path fill-rule="evenodd" clip-rule="evenodd" d="M1514.14 0.0019457C1532.9 -0.156123 1550.18 9.33238 1563.25 22.808C1576.13 36.0797 1584.14 53.5008 1584 72.0072C1583.86 90.3777 1575.2 107.197 1562.5 120.452C1549.5 134.022 1532.9 144.113 1514.14 144.929C1494.6 145.779 1474.94 138.968 1461.39 124.853C1448.05 110.966 1443.25 91.2591 1444.09 72.0072C1444.9 53.6393 1453.03 36.7966 1465.84 23.6288C1478.84 10.267 1495.52 0.158882 1514.14 0.0019457Z" fill="#C72926"/>
</svg>
