<svg width="1104" height="1017" viewBox="0 0 1104 1017" fill="none" xmlns="http://www.w3.org/2000/svg">
<path fill-rule="evenodd" clip-rule="evenodd" d="M433.537 42.8254C537.018 53.4406 640.59 54.5922 733.994 92.9278C835.176 134.456 926.533 191.594 987.415 270.152C1054.09 356.181 1130.19 459.642 1093.71 557.09C1056.98 655.228 891.66 669.836 809.042 746.626C727.967 821.981 727.879 951.904 619.289 998.047C509.046 1044.89 351.724 1046.34 255.053 982.034C155.016 915.484 194.978 781.849 146.664 683.634C118.058 625.484 54.0075 585.633 30.673 525.909C3.91546 457.423 -4.34097 387.382 2.91895 315.72C13.1179 215.045 -15.7295 87.4782 81.3196 25.9756C176.429 -34.2979 314.408 30.6049 433.537 42.8254Z" fill="#C72926"/>
</svg>
